# xmcd
#
# Track frame offsets: 
#        150
#        14035
#        44162
#        63990
#        85400
#        103059
#        127576
#        146163
#
# Disc length: 2194 seconds
#
# Revision: 0
# Processed by: cddbd v1.5.2PL0 Copyright (c) Steve Scherf et al.
# Submitted via: ExactAudioCopy v1.0b1
#
DISCID=72089008
DTITLE=Omni - Omni
DYEAR=1984
DGENRE=Funk
TTITLE0=On and Off (Love Affair)
TTITLE1=Roctron
TTITLE2=Just How Bad
TTITLE3=Let Me Run It
TTITLE4=Warrious
TTITLE5=Leave It Up To Me (The One You Can Turn To)
TTITLE6=All For The One
TTITLE7=Only The Beginning
EXTD=
EXTT0=
EXTT1=
EXTT2=
EXTT3=
EXTT4=
EXTT5=
EXTT6=
EXTT7=
PLAYORDER=
